<svg width="318" height="262" viewBox="0 0 318 262" fill="none" xmlns="http://www.w3.org/2000/svg">
<mask id="path-1-outside-1_172_142" maskUnits="userSpaceOnUse" x="22.6885" y="229.885" width="258" height="32" fill="black">
<rect fill="white" x="22.6885" y="229.885" width="258" height="32"/>
<path d="M43.0954 235.187H45.2517V239.489H40.9391V237.338H38.7828V235.187H30.1575V237.338H28.0011V254.547H30.1575V256.698H38.7828V254.547H40.9391V248.094H34.4701V243.791H45.2517V256.698H43.0954V258.849H40.9391V261H28.0011V258.849H25.8448V256.698H23.6885V235.187H25.8448V233.036H28.0011V230.885H40.9391V233.036H43.0954V235.187Z"/>
<path d="M56.0334 256.698H64.6587V254.547H66.815V250.245H64.6587V248.094H56.0334V250.245H53.877V254.547H56.0334V256.698ZM53.877 261V258.849H51.7207V256.698H49.5644V248.094H51.7207V245.942H53.877V243.791H64.6587V245.942H66.815V241.64H64.6587V239.489H53.877V235.187H66.815V237.338H68.9713V239.489H71.1276V261H66.815V258.849H64.6587V261H53.877Z"/>
<path d="M79.7529 243.791V261H75.4403V237.338H79.7529V239.489H81.9093V237.338H92.6909V239.489H94.8472V241.64H97.0035V261H92.6909V243.791H90.5346V241.64H88.3782V261H84.0656V241.64H81.9093V243.791H79.7529Z"/>
<path d="M107.785 233.036V237.338H103.473V233.036H107.785ZM109.941 256.698H112.098V261H107.785V258.849H105.629V256.698H103.473V245.942H99.1599V241.64H107.785V254.547H109.941V256.698Z"/>
<path d="M120.723 261H116.41V241.64H109.941V237.338H116.41V233.036H118.567V230.885H127.192V235.187H120.723V237.338H127.192V241.64H120.723V261Z"/>
<path d="M138.05 233.036V237.338H133.738V233.036H138.05ZM140.207 256.698H142.363V261H138.05V258.849H135.894V256.698H133.738V245.942H129.425V241.64H138.05V254.547H140.207V256.698Z"/>
<path d="M162.68 254.547V252.396H166.993V256.698H164.837V258.849H162.68V261H149.742V258.849H147.586V256.698H145.43V241.64H147.586V239.489H149.742V237.338H162.68V239.489H164.837V241.64H166.993V245.942H162.68V243.791H160.524V241.64H151.899V243.791H149.742V254.547H151.899V256.698H160.524V254.547H162.68Z"/>
<path d="M197.843 235.187H189.218V237.338H187.061V254.547H189.218V256.698H197.843V254.547H199.999V237.338H197.843V235.187ZM187.061 233.036V230.885H199.999V233.036H202.156V235.187H204.312V256.698H202.156V258.849H199.999V261H187.061V258.849H184.905V256.698H182.749V235.187H184.905V233.036H187.061Z"/>
<path d="M207.283 237.338H211.595V250.245H213.752V252.396H215.908V254.547H220.221V252.396H222.377V250.245H224.533V237.338H228.846V252.396H226.69V254.547H224.533V256.698H222.377V258.849H220.221V261H215.908V258.849H213.752V256.698H211.595V254.547H209.439V252.396H207.283V237.338Z"/>
<path d="M236.839 243.791V245.942H249.777V243.791H247.62V241.64H238.995V243.791H236.839ZM254.089 254.547V256.698H251.933V258.849H249.777V261H236.839V258.849H234.683V256.698H232.526V241.64H234.683V239.489H236.839V237.338H249.777V239.489H251.933V241.64H254.089V248.094H251.933V250.245H236.839V254.547H238.995V256.698H247.62V254.547H254.089Z"/>
<path d="M261.986 248.094V261H257.674V248.094V237.338H261.986V241.64H264.143V239.489H266.299V237.338H274.924V239.489H277.081V241.64H279.237V245.942H274.924V243.791H272.768V241.64H268.455V243.791H266.299V245.942H264.143V248.094H261.986Z"/>
</mask>
<path d="M43.0954 235.187H45.2517V239.489H40.9391V237.338H38.7828V235.187H30.1575V237.338H28.0011V254.547H30.1575V256.698H38.7828V254.547H40.9391V248.094H34.4701V243.791H45.2517V256.698H43.0954V258.849H40.9391V261H28.0011V258.849H25.8448V256.698H23.6885V235.187H25.8448V233.036H28.0011V230.885H40.9391V233.036H43.0954V235.187Z" fill="black"/>
<path d="M56.0334 256.698H64.6587V254.547H66.815V250.245H64.6587V248.094H56.0334V250.245H53.877V254.547H56.0334V256.698ZM53.877 261V258.849H51.7207V256.698H49.5644V248.094H51.7207V245.942H53.877V243.791H64.6587V245.942H66.815V241.64H64.6587V239.489H53.877V235.187H66.815V237.338H68.9713V239.489H71.1276V261H66.815V258.849H64.6587V261H53.877Z" fill="black"/>
<path d="M79.7529 243.791V261H75.4403V237.338H79.7529V239.489H81.9093V237.338H92.6909V239.489H94.8472V241.64H97.0035V261H92.6909V243.791H90.5346V241.64H88.3782V261H84.0656V241.64H81.9093V243.791H79.7529Z" fill="black"/>
<path d="M107.785 233.036V237.338H103.473V233.036H107.785ZM109.941 256.698H112.098V261H107.785V258.849H105.629V256.698H103.473V245.942H99.1599V241.64H107.785V254.547H109.941V256.698Z" fill="black"/>
<path d="M120.723 261H116.41V241.64H109.941V237.338H116.41V233.036H118.567V230.885H127.192V235.187H120.723V237.338H127.192V241.64H120.723V261Z" fill="black"/>
<path d="M138.05 233.036V237.338H133.738V233.036H138.05ZM140.207 256.698H142.363V261H138.05V258.849H135.894V256.698H133.738V245.942H129.425V241.64H138.05V254.547H140.207V256.698Z" fill="black"/>
<path d="M162.68 254.547V252.396H166.993V256.698H164.837V258.849H162.68V261H149.742V258.849H147.586V256.698H145.43V241.64H147.586V239.489H149.742V237.338H162.68V239.489H164.837V241.64H166.993V245.942H162.68V243.791H160.524V241.64H151.899V243.791H149.742V254.547H151.899V256.698H160.524V254.547H162.68Z" fill="black"/>
<path d="M197.843 235.187H189.218V237.338H187.061V254.547H189.218V256.698H197.843V254.547H199.999V237.338H197.843V235.187ZM187.061 233.036V230.885H199.999V233.036H202.156V235.187H204.312V256.698H202.156V258.849H199.999V261H187.061V258.849H184.905V256.698H182.749V235.187H184.905V233.036H187.061Z" fill="black"/>
<path d="M207.283 237.338H211.595V250.245H213.752V252.396H215.908V254.547H220.221V252.396H222.377V250.245H224.533V237.338H228.846V252.396H226.69V254.547H224.533V256.698H222.377V258.849H220.221V261H215.908V258.849H213.752V256.698H211.595V254.547H209.439V252.396H207.283V237.338Z" fill="black"/>
<path d="M236.839 243.791V245.942H249.777V243.791H247.62V241.64H238.995V243.791H236.839ZM254.089 254.547V256.698H251.933V258.849H249.777V261H236.839V258.849H234.683V256.698H232.526V241.64H234.683V239.489H236.839V237.338H249.777V239.489H251.933V241.64H254.089V248.094H251.933V250.245H236.839V254.547H238.995V256.698H247.62V254.547H254.089Z" fill="black"/>
<path d="M261.986 248.094V261H257.674V248.094V237.338H261.986V241.64H264.143V239.489H266.299V237.338H274.924V239.489H277.081V241.64H279.237V245.942H274.924V243.791H272.768V241.64H268.455V243.791H266.299V245.942H264.143V248.094H261.986Z" fill="black"/>
<path d="M43.0954 235.187H45.2517V239.489H40.9391V237.338H38.7828V235.187H30.1575V237.338H28.0011V254.547H30.1575V256.698H38.7828V254.547H40.9391V248.094H34.4701V243.791H45.2517V256.698H43.0954V258.849H40.9391V261H28.0011V258.849H25.8448V256.698H23.6885V235.187H25.8448V233.036H28.0011V230.885H40.9391V233.036H43.0954V235.187Z" stroke="black" mask="url(#path-1-outside-1_172_142)"/>
<path d="M56.0334 256.698H64.6587V254.547H66.815V250.245H64.6587V248.094H56.0334V250.245H53.877V254.547H56.0334V256.698ZM53.877 261V258.849H51.7207V256.698H49.5644V248.094H51.7207V245.942H53.877V243.791H64.6587V245.942H66.815V241.64H64.6587V239.489H53.877V235.187H66.815V237.338H68.9713V239.489H71.1276V261H66.815V258.849H64.6587V261H53.877Z" stroke="black" mask="url(#path-1-outside-1_172_142)"/>
<path d="M79.7529 243.791V261H75.4403V237.338H79.7529V239.489H81.9093V237.338H92.6909V239.489H94.8472V241.64H97.0035V261H92.6909V243.791H90.5346V241.64H88.3782V261H84.0656V241.64H81.9093V243.791H79.7529Z" stroke="black" mask="url(#path-1-outside-1_172_142)"/>
<path d="M107.785 233.036V237.338H103.473V233.036H107.785ZM109.941 256.698H112.098V261H107.785V258.849H105.629V256.698H103.473V245.942H99.1599V241.64H107.785V254.547H109.941V256.698Z" stroke="black" mask="url(#path-1-outside-1_172_142)"/>
<path d="M120.723 261H116.41V241.64H109.941V237.338H116.41V233.036H118.567V230.885H127.192V235.187H120.723V237.338H127.192V241.64H120.723V261Z" stroke="black" mask="url(#path-1-outside-1_172_142)"/>
<path d="M138.05 233.036V237.338H133.738V233.036H138.05ZM140.207 256.698H142.363V261H138.05V258.849H135.894V256.698H133.738V245.942H129.425V241.64H138.05V254.547H140.207V256.698Z" stroke="black" mask="url(#path-1-outside-1_172_142)"/>
<path d="M162.68 254.547V252.396H166.993V256.698H164.837V258.849H162.68V261H149.742V258.849H147.586V256.698H145.43V241.64H147.586V239.489H149.742V237.338H162.68V239.489H164.837V241.64H166.993V245.942H162.68V243.791H160.524V241.64H151.899V243.791H149.742V254.547H151.899V256.698H160.524V254.547H162.68Z" stroke="black" mask="url(#path-1-outside-1_172_142)"/>
<path d="M197.843 235.187H189.218V237.338H187.061V254.547H189.218V256.698H197.843V254.547H199.999V237.338H197.843V235.187ZM187.061 233.036V230.885H199.999V233.036H202.156V235.187H204.312V256.698H202.156V258.849H199.999V261H187.061V258.849H184.905V256.698H182.749V235.187H184.905V233.036H187.061Z" stroke="black" mask="url(#path-1-outside-1_172_142)"/>
<path d="M207.283 237.338H211.595V250.245H213.752V252.396H215.908V254.547H220.221V252.396H222.377V250.245H224.533V237.338H228.846V252.396H226.69V254.547H224.533V256.698H222.377V258.849H220.221V261H215.908V258.849H213.752V256.698H211.595V254.547H209.439V252.396H207.283V237.338Z" stroke="black" mask="url(#path-1-outside-1_172_142)"/>
<path d="M236.839 243.791V245.942H249.777V243.791H247.62V241.64H238.995V243.791H236.839ZM254.089 254.547V256.698H251.933V258.849H249.777V261H236.839V258.849H234.683V256.698H232.526V241.64H234.683V239.489H236.839V237.338H249.777V239.489H251.933V241.64H254.089V248.094H251.933V250.245H236.839V254.547H238.995V256.698H247.62V254.547H254.089Z" stroke="black" mask="url(#path-1-outside-1_172_142)"/>
<path d="M261.986 248.094V261H257.674V248.094V237.338H261.986V241.64H264.143V239.489H266.299V237.338H274.924V239.489H277.081V241.64H279.237V245.942H274.924V243.791H272.768V241.64H268.455V243.791H266.299V245.942H264.143V248.094H261.986Z" stroke="black" mask="url(#path-1-outside-1_172_142)"/>
<path d="M124.418 40.7782H138.242V68.3994H110.594V54.5888H96.7697V40.7782H41.4727V54.5888H27.6485V165.074H41.4727V178.884H96.7697V165.074H110.594V123.642H69.1212V96.0206H138.242V178.884H124.418V192.695H110.594V206.505H27.6485V192.695H13.8242V178.884H0V40.7782H13.8242V26.9676H27.6485V13.157H110.594V26.9676H124.418V40.7782Z" fill="#833CD6"/>
<path d="M207.364 178.884H262.661V165.074H276.485V96.0206H262.661V82.21H207.364V96.0206H193.539V165.074H207.364V178.884ZM193.539 206.505V192.695H179.715V178.884H165.891V82.21H179.715V68.3994H193.539V54.5888H276.485V68.3994H290.309V82.21H304.133V178.884H290.309V192.695H276.485V206.505H193.539Z" fill="#833CD6"/>
<path d="M138.285 27.6212H152.109V55.2424H124.461V41.4318H110.636V27.6212H55.3395V41.4318H41.5152V151.917H55.3395V165.727H110.636V151.917H124.461V110.485H82.988V82.8636H152.109V165.727H138.285V179.538H124.461V193.349H41.5152V179.538H27.691V165.727H13.8668V27.6212H27.691V13.8106H41.5152V0H124.461V13.8106H138.285V27.6212Z" fill="black"/>
<path d="M221.23 165.727H276.527V151.917H290.352V82.8636H276.527V69.053H221.23V82.8636H207.406V151.917H221.23V165.727ZM207.406 193.349V179.538H193.582V165.727H179.758V69.053H193.582V55.2424H207.406V41.4318H290.352V55.2424H304.176V69.053H318V165.727H304.176V179.538H290.352V193.349H207.406Z" fill="black"/>
</svg>
